<?xml version="1.0"?><svg width="640" height="480" xmlns="http://www.w3.org/2000/svg">
 <title>arrow</title>
 <g>
  <title>Layer 1</title>
  <path d="m149,175c1,0 2,0 4,0c3,0 7.988083,0.042206 15,2c10.981735,3.066208 21.880707,5.477844 33,8c10.903366,2.473175 22,4 32,6c10,2 18.034073,1.310242 25,2c5.074219,0.502441 9,2 12,2l-1,0" id="svg_1" fill-opacity="null" stroke-opacity="null" stroke-linecap="null" stroke-linejoin="null" stroke-dasharray="null" stroke-width="null" stroke="null" fill="none"/>
  <path d="m188,156c1,0 4,0 10,0c7,0 16.958466,0.499237 26,1c11.981644,0.663605 24.013657,0.452057 35,1c10.037384,0.500626 19.958466,1.499237 29,2c6.989288,0.3871 11,0 14,0c4,0 5.707092,0.292892 5,1c-0.707092,0.707108 -2,0 -3,0c-1,0 -2.076111,-0.38269 -3,0c-1.306549,0.541199 -2.458801,0.693436 -3,2c-0.38269,0.923874 -1.292908,1.292892 -2,2c-0.707092,0.707108 -0.292908,1.292892 -1,2c-0.707092,0.707108 -1,1 -2,2l-1,0" id="svg_2" fill-opacity="null" stroke-opacity="null" stroke-linecap="null" stroke-linejoin="null" stroke-dasharray="null" stroke-width="null" stroke="null" fill="none"/>
  <path d="m197,246c1,-2 3.723984,-5.222733 7,-9c3.706375,-4.273499 8.199188,-9.775146 15,-16c6.34552,-5.808121 13.054337,-10.937195 20,-17c9.071701,-7.91861 20,-16 43,-32l65,-33l9,-5l18,-8" id="svg_10" fill-opacity="null" stroke-linecap="null" stroke-linejoin="null" stroke-dasharray="null" stroke-width="7" stroke="#000000" fill="none"/>
  <path d="m333,108c1,0 5.05246,-0.855286 12,0c8.184418,1.007545 16.979248,4.09584 26,6c9.978149,2.106255 18.193726,4.200508 28,7c8.215759,2.345436 14.041321,4.847229 18,6c3.036163,0.884132 2.306549,2.458801 1,3c-1.847748,0.765366 -2.906342,1.103409 -4,2c-2.78833,2.285873 -6.198914,3.532364 -9,5c-4.428894,2.320526 -6.296997,5.613831 -9,8c-3.352661,2.959671 -7,6 -9,8c-2,2 -4,5 -6,7c-2,2 -4.474274,5.149353 -5,6c-1.175568,1.902115 -2.458801,1.693436 -3,3c-0.38269,0.923874 -1.076111,1.61731 -2,2c-1.306549,0.541199 -1,-2 -2,-4c-1,-2 -1.432678,-5.054138 -2,-8c-1.018372,-5.287994 -4,-9 -6,-14c-2,-5 -5.376678,-10.887314 -7,-17c-1.308746,-4.9282 -2.793945,-9.08744 -5,-14c-1.832031,-4.079659 -2.337494,-6.310005 -4,-9c-0.7435,-1.203003 -1,-2 -2,-2l0,-1l-1,0" id="svg_11" fill-opacity="null" stroke-linecap="null" stroke-linejoin="null" stroke-dasharray="null" stroke-width="7" stroke="#000000" fill="none"/>
 </g>
</svg>